<svg version="1.2" xmlns="http://www.w3.org/2000/svg" viewBox="0 0 354 83" width="1000" height="234">
	<title>Cg-gruppe_logo-svg</title>
	<style>
		.s0 { fill: none } 
		.s1 { fill: #71767d } 
	</style>
	<path id="Layer" class="s0" d="m0 0h352.9v81.3h-352.9z"/>
	<path id="Layer" fill-rule="evenodd" class="s1" d="m103.4 20.7c-2.9 0-5.1 1.1-6.7 3.2q-2.4 3.3-2.4 9c0 8 3 12 9.1 12 2.6 0 5.7-0.6 9.3-1.9v6.3c-3 1.2-6.3 1.8-10 1.8-5.3 0-9.3-1.5-12.1-4.7-2.8-3.2-4.2-7.7-4.2-13.6 0-3.7 0.7-7 2.1-9.8 1.4-2.8 3.3-4.9 5.9-6.4 2.6-1.5 5.6-2.2 9.1-2.2 3.5 0 7 0.8 10.6 2.5l-2.5 6.2c-1.4-0.7-2.7-1.2-4.1-1.7-1.3-0.4-2.7-0.7-4.1-0.7zm29.4 16.2v-6.3h14.4v18.6c-2.3 0.8-4.5 1.3-6.6 1.6-2 0.3-4.1 0.5-6.3 0.5q-8.3 0-12.6-4.8c-2.9-3.2-4.3-7.8-4.3-13.7 0-5.8 1.6-10.3 5-13.5 3.3-3.3 8-4.9 13.9-4.9 3.7 0 7.3 0.7 10.8 2.2l-2.6 6.1c-2.7-1.3-5.4-2-8.3-2-3.3 0-6 1.1-8 3.3-2 2.2-3 5.2-3 8.9 0 3.9 0.8 6.9 2.4 8.9 1.6 2.1 3.9 3.1 7 3.1 1.6 0 3.2-0.2 4.9-0.5v-7.5zm45.9 0v-6.3h14.4v18.6c-2.3 0.8-4.5 1.3-6.6 1.6-2 0.3-4.1 0.5-6.3 0.5q-8.3 0-12.6-4.8c-2.9-3.2-4.3-7.8-4.3-13.7 0-5.8 1.6-10.3 5-13.5 3.3-3.3 8-4.9 13.9-4.9 3.7 0 7.3 0.7 10.8 2.2l-2.6 6.1c-2.7-1.3-5.4-2-8.3-2-3.3 0-6 1.1-8 3.3-2 2.2-3 5.2-3 8.9 0 3.9 0.8 6.9 2.4 8.9 1.6 2.1 3.9 3.1 7 3.1 1.6 0 3.2-0.2 4.9-0.5v-7.5zm29.7 0.1v13.6h-7.7v-35.8h10.6c5 0 8.6 0.9 11 2.7q3.6 2.7 3.6 8.1c0 2.1-0.6 4-1.8 5.6-1.2 1.7-2.8 3-5 3.9 5.5 8 9 13.2 10.7 15.6h-8.5l-8.7-13.7zm0.1-6.2h2.5q3.6 0 5.4-1.2c1.1-0.8 1.7-2.1 1.7-3.8q0-2.6-1.8-3.6c-1.2-0.7-3-1.1-5.5-1.1h-2.3zm53.9-15.9v23.1c0 2.7-0.6 5-1.8 7-1.2 2-2.9 3.5-5.2 4.6-2.2 1.1-4.9 1.6-8 1.6-4.7 0-8.3-1.1-10.9-3.5-2.6-2.4-3.9-5.6-3.9-9.7v-23.1h7.7v21.9c0 2.8 0.6 4.8 1.7 6.1 1.1 1.3 3 1.9 5.6 1.9 2.5 0 4.4-0.6 5.5-1.9 1.1-1.3 1.7-3.3 1.7-6.1v-21.9zm33.2 11.2c0 3.8-1.3 6.8-3.7 8.8-2.4 2.1-5.9 3.1-10.4 3.1h-3.3v12.7h-7.7v-35.8h11.6c4.4 0 7.7 0.9 10 2.8 2.3 1.9 3.5 4.7 3.5 8.4zm-17.4 5.6h2.5c2.4 0 4.1-0.5 5.3-1.4 1.2-0.9 1.8-2.2 1.8-4 0-1.7-0.5-3.1-1.5-3.9-1-0.9-2.5-1.3-4.6-1.3h-3.5zm48.2-5.6c0 3.8-1.3 6.8-3.7 8.8-2.4 2.1-5.9 3.1-10.4 3.1h-3.3v12.7h-7.7v-35.8h11.6c4.4 0 7.7 0.9 10 2.8 2.3 1.9 3.4 4.7 3.5 8.4zm-17.5 5.6h2.5c2.4 0 4.1-0.5 5.3-1.4 1.2-0.9 1.8-2.2 1.8-4 0-1.7-0.5-3.1-1.5-3.9-1-0.9-2.5-1.3-4.6-1.3h-3.5zm44 19h-20.9v-35.8h20.9v6.2h-13.2v7.9h12.3v6.3h-12.3v9.2h13.2z"/>
	<path id="Layer" class="s1" d="m16.5 18.4c0 0-0.2-0.2-0.4 0l-16 15.7c0 0-0.2 0.2 0 0.4l34.5 34c0 0 0.2 0.2 0.4 0l15.9-15.7c0 0 0.2-0.2 0-0.4l-7.5-7.4c0 0-0.2-0.2-0.4 0l-8 7.9c0 0-0.2 0.2-0.4 0l-18.6-18.4c0 0-0.2-0.2 0-0.4l8-7.9c0 0 0.2-0.2 0-0.4z"/>
	<path id="Layer" class="s1" d="m69.5 34.5c0 0 0.2-0.2 0-0.4l-14.6-14.3-6.5-6.4c0 0-0.2-0.2-0.4 0l-7.7 7.6-8 7.9c0 0-0.2 0.2 0 0.4l6.2 6.2c0 0 0.2 0.2 0.4 0l7.8-7.7c0 0 0.2-0.2 0.5 0l6.3 6.2c0 0 0.2 0.2 0 0.4l-8 7.9c0 0-0.2 0.2 0 0.4l7.5 7.4c0 0 0.2 0.2 0.4 0zm-32.6-16.9c0 0 0.2 0.2 0.4 0l7.5-7.4c0 0 0.2-0.2 0-0.4l-9.8-9.7c0 0-0.2-0.2-0.4 0l-16 15.7c0 0-0.2 0.2 0 0.4l7.5 7.4c0 0 0.2 0.2 0.4 0l8-7.8c0 0 0.2-0.2 0.4 0z"/>
	<path id="Layer" fill-rule="evenodd" class="s1" d="m352.5 81.1h-1.4l-5.9-9h-0.1c0.1 1 0.1 2 0.1 2.9v6.2h-1.2v-10.8h1.4l5.9 9h0.1c0-0.2-0.1-0.6-0.1-1.3 0-0.7 0-7.4 0-7.7h1.2zm-12.3-5.4c0 1.8-0.4 3.1-1.3 4.1-0.8 1-2.1 1.5-3.6 1.5-1.6 0-2.8-0.5-3.7-1.5-0.9-1-1.3-2.3-1.3-4.1 0-1.8 0.4-3.1 1.3-4.1 0.9-0.9 2.1-1.4 3.7-1.4q2.2 0 3.6 1.5c0.8 0.9 1.3 2.3 1.3 4zm-8.6 0q0 2.1 0.9 3.3c0.6 0.7 1.5 1.1 2.7 1.1 1.2 0 2.1-0.3 2.7-1.1q0.9-1 0.9-3.3 0-2.2-0.9-3.3c-0.6-0.7-1.5-1.1-2.7-1.1-1.2 0-2.1 0.3-2.7 1.1q-0.9 1.2-0.9 3.3zm-5.3 5.5h-1.3v-10.8h1.3zm-4.8-2.9c0 0.9-0.3 1.7-1 2.2-0.7 0.5-1.6 0.8-2.8 0.8-1.2 0-2.2-0.2-2.9-0.5v-1.2c0.4 0.1 0.9 0.3 1.4 0.4 0.5 0.1 1 0.2 1.5 0.2 0.9 0 1.5-0.2 1.9-0.5 0.4-0.3 0.6-0.7 0.6-1.3 0-0.4-0.1-0.7-0.2-0.9-0.2-0.3-0.4-0.5-0.8-0.7-0.3-0.2-0.9-0.4-1.6-0.7-1-0.4-1.7-0.8-2.1-1.3-0.4-0.5-0.6-1.1-0.6-1.9 0-0.9 0.3-1.5 0.9-2 0.6-0.5 1.5-0.7 2.5-0.7 1 0 2 0.2 2.9 0.6l-0.4 1.1c-0.9-0.4-1.8-0.6-2.6-0.6-0.7 0-1.2 0.1-1.6 0.4q-0.6 0.5-0.6 1.2c0 0.4 0.1 0.7 0.2 0.9 0.1 0.3 0.4 0.5 0.7 0.7 0.3 0.2 0.8 0.5 1.5 0.7 1.1 0.4 1.9 0.8 2.3 1.3 0.4 0.4 0.7 1 0.8 1.8zm-10.7 2.8h-1.4l-5.9-9h-0.1c0.1 1 0.1 2 0.1 2.9v6.2h-1.2v-10.8h1.4l5.9 9h0.1c0-0.2-0.1-0.6-0.1-1.3 0-0.7 0-7.4 0-7.7h1.2zm-12.2 0h-6v-10.8h6v1.1h-4.7v3.5h4.5v1.1h-4.5v4h4.7zm-15.4 0.1h-1l-3.6-9.5h-0.1c0.1 0.8 0.1 1.7 0.1 2.7v6.8h-1.2v-10.8h1.9l3.4 8.9h0.1l3.4-8.9h1.9v10.7h-1.2v-6.9c0-0.8 0-1.7 0.1-2.6h-0.1l-3.7 9.5zm-10.2 0h-1.3v-10.8h1.3zm-5.2-5.6c0 1.8-0.4 3.2-1.4 4.1-1 0.9-2.4 1.4-4.2 1.4h-3v-10.8h3.3c1.7 0 3 0.5 3.9 1.4 0.9 1 1.4 2.3 1.4 3.9zm-1.3 0.1c0-1.4-0.4-2.5-1.1-3.2-0.7-0.7-1.7-1.1-3.1-1.1h-1.8v8.6h1.5c1.5 0 2.6-0.4 3.4-1.1 0.7-0.7 1.1-1.8 1.1-3.2zm-21.4 0.9v4.5h-1.3v-10.8h3c1.3 0 2.3 0.3 2.9 0.8 0.6 0.5 0.9 1.3 0.9 2.3 0 1.4-0.8 2.4-2.2 2.9l2.9 4.8h-1.5l-2.6-4.5zm-0.1-1h1.7c0.8 0 1.5-0.1 1.9-0.5 0.4-0.4 0.6-0.9 0.6-1.6q0-1-0.6-1.5c-0.4-0.3-1.1-0.5-2-0.5h-1.6zm-5.1 5.5h-6v-10.8h6v1.1h-4.7v3.5h4.5v1.1h-4.5v4h4.7zm-11.6-10.8h1.3v7c0 1.2-0.4 2.2-1.1 2.9-0.8 0.7-1.8 1.1-3.1 1.1-1.3 0-2.3-0.4-3-1.1-0.7-0.7-1.1-1.7-1.1-2.9v-6.9h1.3v7c0 0.9 0.2 1.6 0.7 2.1 0.5 0.5 1.2 0.7 2.2 0.7 0.9 0 1.6-0.2 2.1-0.7 0.5-0.5 0.7-1.2 0.7-2.1zm-10.7 10.8h-6v-10.8h6v1.1h-4.7v3.5h4.5v1.1h-4.5v4h4.7zm-10.4-10.7v10.7h-1.4l-5.9-9h-0.1c0.1 1 0.1 2 0.1 2.9v6.2h-1.2v-10.8h1.4l5.9 9h0.1c0-0.2-0.1-0.6-0.1-1.3 0-0.7 0-7.4 0-7.7zm-17.6 10.7h-1.4l-5.9-9h-0.1c0.1 1 0.1 2 0.1 2.9v6.2h-1.2v-10.8h1.4l5.9 9h0.1c0-0.2-0.1-0.6-0.1-1.3 0-0.7 0-7.4 0-7.7h1.2zm-12.2 0h-6v-10.8h6v1.1h-4.7v3.5h4.5v1.1h-4.5v4h4.7zm-10.5 0.1h-1.3v-10.8h1.3zm-4.7 0h-6v-10.8h1.3v9.6h4.7zm-10.4 0h-1.3v-10.8h1.3zm-12.6-10.9h3c1.4 0 2.5 0.2 3.1 0.6 0.7 0.4 1 1.1 1 2 0 0.7-0.1 1.2-0.5 1.6-0.4 0.4-0.9 0.7-1.6 0.8v0.1c1.7 0.3 2.5 1.2 2.5 2.6 0 1-0.3 1.8-1 2.3-0.6 0.5-1.5 0.8-2.7 0.8h-3.8zm1.1 1.1v3.5h2.1c0.9 0 1.5-0.1 1.9-0.4 0.4-0.3 0.6-0.7 0.6-1.4 0-0.6-0.2-1-0.6-1.3-0.5-0.3-1.2-0.4-2.1-0.4zm2.3 4.7h-2.1v4h2.2c0.9 0 1.6-0.2 2-0.5 0.5-0.4 0.7-0.9 0.7-1.6 0-0.7-0.3-1.2-0.7-1.5-0.5-0.3-1.2-0.5-2.1-0.5zm-7.4-0.4c0 1.8-0.4 3.1-1.3 4.1q-1.2 1.5-3.6 1.5c-1.6 0-2.8-0.5-3.7-1.5-0.9-1-1.3-2.3-1.3-4.1 0-1.8 0.4-3.1 1.3-4.1 0.9-0.9 2.1-1.4 3.7-1.4q2.3 0 3.6 1.5c0.9 0.9 1.3 2.3 1.3 4zm-8.5 0q0 2.1 0.9 3.3c0.6 0.7 1.5 1.1 2.7 1.1 1.2 0 2.1-0.3 2.7-1.1q0.9-1.1 0.9-3.3 0-2.2-0.9-3.3c-0.6-0.7-1.5-1.1-2.7-1.1-1.2 0-2.1 0.3-2.7 1.1q-1 1.2-0.9 3.3zm-10.3 5.5h-0.8l-3.7-9.5h-0.1c0.1 0.8 0.1 1.7 0.1 2.7v6.8h-1.2v-10.8h1.9l3.4 8.9h0.1l3.4-8.9h1.9v10.7h-1.3v-6.9c0-0.8 0-1.7 0.1-2.6h-0.1l-3.7 9.5zm-15.1 0h-0.8l-3.7-9.5h-0.1c0.1 0.8 0.1 1.7 0.1 2.7v6.8h-1.2v-10.8h1.9l3.4 8.9h0.1l3.4-8.9h1.9v10.7h-1.3v-6.9c0-0.8 0-1.7 0.1-2.6h-0.1l-3.7 9.5zm-10.2 0h-1.3v-10.8h1.3z"/>
</svg>