<!DOCTYPE svg PUBLIC "-//W3C//DTD SVG 1.1//EN" "http://www.w3.org/Graphics/SVG/1.1/DTD/svg11.dtd">
<!-- Uploaded to: SVG Repo, www.svgrepo.com, Transformed by: SVG Repo Mixer Tools -->
<svg fill="#71767d" version="1.1" id="Layer_1" xmlns="http://www.w3.org/2000/svg" xmlns:xlink="http://www.w3.org/1999/xlink" viewBox="0 0 490 490" xml:space="preserve" width="800px" height="800px">
<g id="SVGRepo_bgCarrier" stroke-width="0"/>
<g id="SVGRepo_tracerCarrier" stroke-linecap="round" stroke-linejoin="round"/>
<g id="SVGRepo_iconCarrier"> <g> <g> <g> <path d="M75,20h340v165h20V10c0-5.522-4.478-10-10-10H65c-5.522,0-10,4.478-10,10v175h20V20z"/> <path d="M415,390h-70c-5.522,0-10,4.478-10,10v70H75V314.995H55V480c0,5.522,4.478,10,10,10h280c2.602,0,5.159-1.016,7.071-2.929 l80-80c1.912-1.913,2.904-4.47,2.905-7.071H435v-85.002h-20V390z M355,455.857V410h45.857L355,455.857z"/> <path d="M480,215H65v0.019c-1.406,0-2.818,0.278-4.138,0.877l-55,25C2.292,242.519,0,246.078,0,250s2.292,7.481,5.862,9.104 l55,25c1.319,0.601,2.73,0.896,4.137,0.896H65h415c5.522,0,10-4.478,10-10v-50C490,219.478,485.522,215,480,215z M55,259.47 L34.166,250L55,240.53V259.47z M415,265H75v-30h340V265z M470,265h-35v-30h35V265z"/> <rect x="100" y="45" width="80" height="20"/> <rect x="100" y="85" width="110" height="20"/> <rect x="145" y="135" width="245" height="20"/> <rect x="100" y="175" width="290" height="20"/> <rect x="100" y="305" width="290" height="20"/> <rect x="100" y="385" width="160" height="20"/> <rect x="340" y="45" width="20" height="20"/> <rect x="370" y="45" width="20" height="20"/> <rect x="100" y="420" width="25" height="20"/> <rect x="140" y="420" width="25" height="20"/> </g> </g> </g> </g>
</svg>