<svg version="1.2" xmlns="http://www.w3.org/2000/svg" viewBox="0 0 100 70" width="1000" height="700">
	<title>Deutsche_Bahn_AG-Logo-svg</title>
	<style>
		.s0 { fill: #71767d } 
	</style>
	<path id="Layer" class="s0" d="m90 0h-39v7h39c0.2-0.2 3.3 2.7 3 3v50c0.3 0.4-2.7 3.3-3 3h-80c-0.4 0.5-3.3-2.7-3-3v-50c-0.4-0.3 2.5-3.4 3-3h41v-7h-41c-5.5 0-10 4.5-10 10v50c0 5.5 4.5 10 10 10h80c5.5 0 10-4.5 10-10.1v-49.9c0-5.5-4.5-10-10-10z"/>
	<path id="Layer" fill-rule="evenodd" class="s0" d="m30.6 57.9h-16.8v-45.8h16.8c11.9 0 18.4 7.4 18.4 22.7 0 13.2-4.5 23-18.4 23.1zm7.3-22.2c0-9.2-1-16.4-10.9-16.4h-2.2v31.2h3.9c5.8 0 9.2-4.7 9.2-14.8zm49.8 9.2c0 12.9-13.4 12.9-17.7 12.9h-16.2v-45.8h19.1c12.9 0 13.1 10.2 13.1 11.2-0.1 5-3.3 9.3-8 10.7 8.3 1.8 9.7 7.9 9.7 11zm-22.9-25.7v11h4.3c3.8 0 6-2.5 6-5.5 0-3.8-2-5.5-6.9-5.5zm11.8 25.4c0-2.6-1.4-5.9-7.1-5.9h-4.8v11.8h4.5c1.8 0 7.4 0 7.4-5.9z"/>
</svg>