<svg version="1.2" xmlns="http://www.w3.org/2000/svg" viewBox="0 0 229 35" width="1000" height="153">
	<title>hays-logo-svg</title>
	<style>
		.s0 { fill: #71767d } 
	</style>
	<g id="Layer">
		<path id="Layer" class="s0" d="m88.6 2c0.2-0.1-11.3 18-11.3 17.9v10.3c0.1 0.1-9.6 0.1-9.5 0v-10.3c0 0-11.5-18-11.3-17.9-0.2-0.1 10.1-0.1 10.1 0 0-0.1 6 9.3 6 9.3 0 0 5.9-9.4 5.9-9.3 0-0.1 10.3-0.1 10.1 0z"/>
		<path id="Layer" fill-rule="evenodd" class="s0" d="m51.2 2c0.1-0.1 11.3 28.3 11.1 28.2 0.2 0.1-9.7 0.1-9.8 0-0.1-0.2-1.3-3.9-1.3-4 0 0.1-10 0.1-10 0 0 0.1-1.4 3.8-1.4 4-0.1 0.1-9.8 0.1-9.6 0-0.2 0.1 11.2-28.3 11.2-28.2 0-0.1 9.9-0.1 9.8 0zm-21 28.2q0 0 0 0 0 0 0 0zm18.7-10.8c0 0-2.6-7.9-2.6-7.9 0 0-2.7 7.9-2.7 7.9-0.1 0 5.3 0 5.3 0z"/>
		<path id="Layer" class="s0" d="m103.1 11.8c-3.1-0.5-6.1-0.3-6.3-1.6-0.3-1.2 1.3-1.4 2.5-1.4 2.5-0.1 6.1 1 8.2 1.8 0 0 4-6.3 4-6.3-3.4-1.9-8.7-3-13.8-2.6-6.5 0.5-10.4 4.5-10.2 9.2 0 6.1 6 7.9 8.9 8.4 4.2 0.8 7.5 0.4 7.4 2 0 1.1-2.1 1.5-4.2 1.4-2.5 0-5.9-0.8-9-2.7l-4.2 6.6c4.8 3.5 10.7 4.2 15.3 3.9 6.2-0.6 10.9-3.5 11.3-8.5 0.9-6.7-4.5-9.4-9.9-10.2"/>
		<path id="Layer" class="s0" d="m23.3 1.9c-2.4 0-4.6 0.1-4.5 0.1v9.4h-9.4v-9.4c0.1 0-2.1-0.1-4.5-0.1-2.5 0-5 0.1-4.9 0.1v28.2c0 0 2.4 0.1 4.8 0.1 2.5 0 4.6-0.1 4.6-0.1v-9.4h9.4v9.4c0 0 2.1 0.1 4.5 0.1 2.5 0 4.9-0.1 4.9-0.1v-28.2c0 0-2.4-0.1-4.9-0.1z"/>
		<g id="Layer">
			<path id="Layer" class="s0" d="m124.9 1.9h1.3l2.7 9.4 2.7-9.4h1.1l2.6 9.4 2.7-9.4h1.3l-3.4 11.6h-1.1l-2.7-9.3-2.7 9.3h-1c0 0-3.5-11.6-3.5-11.6z"/>
			<path id="Layer" fill-rule="evenodd" class="s0" d="m139.2 9.2v-0.1c0-2.5 1.6-4.4 3.8-4.4 2.2 0 3.8 1.9 3.8 4.4v0.1c0 2.5-1.6 4.4-3.8 4.4-2.2 0-3.8-1.9-3.8-4.4zm6.4 0v-0.1c0-1.9-1.2-3.3-2.6-3.3-1.5 0-2.6 1.4-2.6 3.3v0.1c0 1.9 1.1 3.3 2.6 3.3 1.4 0 2.6-1.4 2.6-3.3z"/>
			<path id="Layer" class="s0" d="m148.3 4.8h1.2v1.9c0.5-1.2 1.6-2 3-2v1.3h-0.1c-1.6 0-2.9 1.1-2.9 3.3v4.1h-1.2z"/>
			<path id="Layer" class="s0" d="m154 1.6h1.2v7.9l3.8-4.6h1.4l-3 3.5 3.1 5h-1.4l-2.5-4-1.4 1.6v2.4h-1.2z"/>
			<path id="Layer" class="s0" d="m162 1.7h1.3v1.4h-1.3zm0 3.1h1.2v8.6h-1.2z"/>
			<path id="Layer" class="s0" d="m165.6 4.8h1.2v1.4c0.4-0.8 1.2-1.5 2.5-1.5 1.7 0 2.8 1.2 2.8 3.1v5.6h-1.2v-5.3c0-1.5-0.7-2.3-2-2.3-1.2 0-2.1 0.9-2.1 2.4v5.2h-1.2z"/>
			<path id="Layer" fill-rule="evenodd" class="s0" d="m173.9 14.9l0.5-0.9c0.8 0.5 1.7 0.8 2.7 0.8 1.6 0 2.6-0.8 2.6-2.5v-1.3c-0.6 1-1.4 1.8-2.8 1.8-1.7 0-3.3-1.5-3.3-4v-0.1c0-2.6 1.6-4 3.3-4 1.4 0 2.2 0.8 2.8 1.7v-1.6h1.2v7.4c0 1.2-0.3 2.1-0.9 2.7-0.7 0.6-1.6 0.9-2.9 0.9-1.1 0-2.2-0.3-3.2-0.9zm5.9-6.2c0-1.8-1.3-3-2.6-3-1.3 0-2.4 1.1-2.4 3 0 1.9 1.1 3 2.4 3 1.3 0 2.6-1.1 2.6-3z"/>
			<path id="Layer" class="s0" d="m188 5.9h-1.1v-1h1.1v-0.8c0-0.9 0.2-1.6 0.6-2q0.6-0.6 1.7-0.6c0.4 0 0.8 0.1 1.1 0.2v1c-0.3-0.1-0.6-0.2-1-0.2q-1.3 0-1.3 1.6v0.8h2.3v1h-2.2v7.5h-1.2z"/>
			<path id="Layer" fill-rule="evenodd" class="s0" d="m191.8 9.2v-0.1c0-2.5 1.6-4.4 3.8-4.4 2.1 0 3.7 1.9 3.7 4.4v0.1c0 2.5-1.6 4.4-3.8 4.4-2.1 0-3.7-1.9-3.7-4.4zm6.3 0v-0.1c0-1.9-1.1-3.3-2.5-3.3-1.5 0-2.6 1.4-2.6 3.3v0.1c0 1.9 1.1 3.3 2.6 3.3 1.4 0 2.5-1.4 2.5-3.3z"/>
			<path id="Layer" class="s0" d="m201.2 4.8h1.2v1.9c0.5-1.2 1.6-2 2.9-2v1.3c-1.6 0-2.9 1.1-2.9 3.3v4.1h-1.2z"/>
			<path id="Layer" class="s0" d="m131.1 21.7h1.2l-3 8.7c-0.6 1.7-1.3 2.3-2.5 2.3q-0.8 0-1.5-0.4l0.3-0.9c0.4 0.1 0.7 0.3 1.1 0.3 0.7 0 1.1-0.4 1.5-1.5l-3.3-8.5h1.3l2.6 7 2.3-7z"/>
			<path id="Layer" fill-rule="evenodd" class="s0" d="m132.9 25.9c0-2.5 1.6-4.4 3.8-4.4 2.1 0 3.7 1.9 3.7 4.4v0.1c0 2.5-1.6 4.4-3.8 4.4-2.1 0-3.7-1.9-3.7-4.4zm6.3 0.1v-0.1c0-1.9-1.1-3.3-2.6-3.3-1.4 0-2.5 1.4-2.5 3.3v0.1c0 1.9 1.1 3.3 2.6 3.3 1.4 0 2.5-1.4 2.5-3.3z"/>
			<path id="Layer" class="s0" d="m141.8 27.3v-5.6h1.2v5.2c0 1.6 0.7 2.4 1.9 2.4 1.3 0 2.2-0.9 2.2-2.4v-5.2h1.2v8.5h-1.2v-1.4c-0.5 0.9-1.3 1.6-2.5 1.6-1.8 0-2.8-1.2-2.8-3.1z"/>
			<path id="Layer" class="s0" d="m150.6 21.7h1.2v1.9c0.5-1.2 1.5-2.1 2.9-2v1.3h-0.1c-1.5 0-2.8 1.1-2.8 3.3v4h-1.2v-8.5z"/>
			<path id="Layer" class="s0" d="m160.9 28.2v-5.5h-1v-1h1v-2.5h1.2v2.5h2.2v1h-2.2v5.3c0 0.9 0.5 1.3 1.3 1.3q0.4 0 1-0.3v1.1c-0.4 0.1-0.8 0.2-1.3 0.2-1.2 0-2.2-0.5-2.2-2.1z"/>
			<path id="Layer" fill-rule="evenodd" class="s0" d="m165.4 25.9c0-2.5 1.6-4.4 3.8-4.4 2.2 0 3.8 1.9 3.8 4.4v0.1c0 2.5-1.6 4.4-3.8 4.4-2.2 0-3.8-1.9-3.8-4.4zm6.4 0.1v-0.1c0-1.9-1.2-3.3-2.6-3.3-1.5 0-2.6 1.4-2.6 3.3v0.1c0 1.9 1.1 3.3 2.6 3.3 1.4 0 2.6-1.4 2.6-3.3z"/>
			<path id="Layer" class="s0" d="m174.9 21.7h1.1v1.4c0.5-0.8 1.2-1.6 2.4-1.6 1.2 0 2 0.7 2.4 1.6 0.5-0.8 1.3-1.6 2.6-1.6 1.7 0 2.7 1.2 2.7 3.2v5.5h-1.2v-5.2c0-1.6-0.7-2.4-1.8-2.4-1.2 0-2 0.9-2 2.4v5.2h-1.2v-5.3c0-1.5-0.7-2.3-1.9-2.3-1.1 0-2 1-2 2.4v5.2h-1.1c0 0 0-8.5 0-8.5z"/>
			<path id="Layer" fill-rule="evenodd" class="s0" d="m187.7 25.9c0-2.5 1.6-4.4 3.8-4.4 2.1 0 3.7 1.9 3.7 4.4v0.1c0 2.5-1.6 4.4-3.8 4.4-2.1 0-3.7-1.9-3.7-4.4zm6.3 0.1v-0.1c0-1.9-1.1-3.3-2.6-3.3-1.4 0-2.5 1.4-2.5 3.3v0.1c0 1.9 1.1 3.3 2.6 3.3 1.4 0 2.5-1.4 2.5-3.3z"/>
			<path id="Layer" class="s0" d="m196.8 21.7h1.2v1.9c0.5-1.2 1.6-2.1 2.9-2v1.3c-1.6 0-2.9 1.1-2.9 3.3v4h-1.2v-8.5z"/>
			<path id="Layer" class="s0" d="m202.5 21.7h1.2v1.9c0.5-1.2 1.5-2.1 2.9-2v1.3h-0.1c-1.6 0-2.8 1.1-2.8 3.3v4h-1.2v-8.5z"/>
			<path id="Layer" fill-rule="evenodd" class="s0" d="m207.4 25.9c0-2.5 1.6-4.4 3.8-4.4 2.2 0 3.8 1.9 3.8 4.4v0.1c0 2.5-1.6 4.4-3.8 4.4-2.2 0-3.8-1.9-3.8-4.4zm6.4 0.1v-0.1c0-1.9-1.1-3.3-2.6-3.3-1.4 0-2.5 1.4-2.5 3.3v0.1c0 1.9 1.1 3.3 2.5 3.3 1.5 0 2.6-1.4 2.6-3.3z"/>
			<path id="Layer" class="s0" d="m215.7 21.7h1.2l1.9 6.8 1.9-6.8h1l2 6.8 1.9-6.8h1.2l-2.6 8.6h-1l-2-6.7-1.9 6.7h-1.1c0 0-2.5-8.6-2.5-8.6z"/>
		</g>
	</g>
</svg>