<svg version="1.2" xmlns="http://www.w3.org/2000/svg" viewBox="0 0 1080 381" width="1000" height="353">
	<title>logo-nemetschek-group-svg</title>
	<style>
		tspan { white-space:pre } 
		.s0 { fill: #000000 } 
		.s1 { fill: #878787 } 
		.s2 { fill: none } 
	</style>
	<filter id="f0">
		<feFlood flood-color="#71767d" flood-opacity="1" />
		<feBlend mode="normal" in2="SourceGraphic"/>
		<feComposite in2="SourceAlpha" operator="in" />
	</filter>
	<g id="Folder 1" filter="url(#f0)">
		<path id="Layer" class="s0" d="m11.5 175.7v-78.5h15.4l32.2 52.4v-52.4h14.7v78.5h-15.9l-31.7-51.2v51.2z"/>
		<path id="Layer" class="s0" d="m88.4 175.7v-78.5h58.2v13.3h-42.4v17.4h39.5v13.2h-39.5v21.4h43.9v13.2z"/>
		<path id="Layer" class="s0" d="m163.1 175.7v-78.5h23.7l14.3 53.6 14.1-53.6h23.8v78.5h-14.8v-61.8l-15.6 61.8h-15.3l-15.5-61.8v61.8z"/>
		<path id="Layer" class="s0" d="m253.8 175.7v-78.5h58.2v13.3h-42.4v17.4h39.5v13.2h-39.5v21.4h43.9v13.2z"/>
		<path id="Layer" class="s0" d="m343.7 175.7v-65.2h-23.3v-13.3h62.4v13.3h-23.2v65.2z"/>
		<path id="Layer" class="s0" d="m386.3 150.2l15.4-1.6q1.4 7.9 5.6 11.6 4.3 3.7 11.5 3.7 7.7 0 11.6-3.3 3.9-3.2 3.9-7.7 0-2.8-1.7-4.8-1.6-2-5.7-3.4-2.8-1-12.7-3.5-12.7-3.2-17.9-7.9-7.2-6.6-7.2-16 0-6.1 3.4-11.4 3.4-5.3 9.8-8.1 6.4-2.8 15.5-2.8 14.7 0 22.2 6.6 7.5 6.6 7.9 17.6l-15.9 0.7q-1-6.2-4.4-8.9-3.3-2.7-10-2.7-6.9 0-10.8 2.9-2.6 1.9-2.6 5 0 2.8 2.4 4.8 3 2.6 14.6 5.3 11.6 2.8 17.1 5.8 5.5 2.9 8.7 8.1 3.1 5.1 3.1 12.7 0 6.8-3.7 12.8-3.8 6-10.7 8.9-6.8 2.9-17 2.9-14.9 0-22.9-7-8-6.9-9.5-20.3z"/>
		<path id="Layer" class="s0" d="m512.8 147l15.4 4.9q-3.6 13-11.8 19.3-8.2 6.3-20.9 6.3-15.6 0-25.7-10.8-10-10.8-10-29.5 0-19.8 10.1-30.8 10.1-11 26.6-11 14.4 0 23.4 8.6 5.4 5.1 8.1 14.6l-15.7 3.8q-1.4-6.1-5.8-9.7-4.5-3.6-10.8-3.6-8.7 0-14.1 6.4-5.5 6.3-5.5 20.5 0 15 5.4 21.4 5.3 6.4 13.9 6.4 6.3 0 10.9-4.1 4.5-4 6.5-12.7z"/>
		<path id="Layer" class="s0" d="m540.9 175.7v-78.5h15.9v30.9h31v-30.9h15.9v78.5h-15.9v-34.3h-31v34.3z"/>
		<path id="Layer" class="s0" d="m619.1 175.7v-78.5h58.3v13.3h-42.4v17.4h39.5v13.2h-39.5v21.4h43.9v13.2z"/>
		<path id="Layer" class="s0" d="m693.8 175.7v-78.5h15.9v34.9l32-34.9h21.3l-29.5 30.6 31.2 47.9h-20.6l-21.6-36.8-12.8 13.1v23.7z"/>
		<path id="Layer" class="s1" d="m49.3 250.5v-9.2l33.2-0.1v32.7q-7.7 6.1-15.8 9.2-8.1 3.1-16.7 3.1-11.5 0-20.9-5-9.5-4.9-14.3-14.3-4.8-9.3-4.8-20.9 0-11.4 4.8-21.3 4.8-9.9 13.8-14.8 8.9-4.8 20.6-4.8 8.5 0 15.4 2.8 6.9 2.7 10.8 7.7c2.2 2.8 4.1 6.3 5.3 10.7 0 0-9.3 2.8-9.3 2.7-0.9-3.1-2.4-5.6-3.8-7.5q-2.6-3.4-7.5-5.4-4.9-2.1-10.8-2.1-7.1 0-12.3 2.2-5.2 2.1-8.4 5.7-3.2 3.5-4.9 7.7-3 7.3-3 15.8 0 10.5 3.6 17.5 3.6 7.1 10.5 10.5 6.9 3.4 14.7 3.4 6.7 0 13.1-2.6 6.4-2.6 9.7-5.5v-18.2c0 0-23 0-23 0z"/>
		<path id="Layer" fill-rule="evenodd" class="s1" d="m98.8 284.8v-78.3h34.8q10.5 0 15.9 2.1 5.5 2.1 8.7 7.4 3.3 5.4 3.3 11.9 0 8.3-5.4 14c-3.6 3.8-9.7 6-16.7 7.3 0 0 28.5 35.6 28.5 35.6h-13.1l-27.8-34.8c0 0-3.1 0-5.8 0h-12v34.8zm40.6-35.6q0 0 0 0 0 0 0 0zm-7.9-8.2q7.1 0 11.1-1.4 4-1.5 6.1-4.7 2-3.3 2-7 0-5.6-4-9.2-4-3.6-12.7-3.6h-24.9v25.9z"/>
		<path id="Layer" fill-rule="evenodd" class="s1" d="m171.8 246.7q0-19.5 10.5-30.6 10.5-11 27-11 10.9 0 19.6 5.2 8.7 5.2 13.3 14.4 4.6 9.3 4.5 21.1 0.1 11.9-4.8 21.3-4.8 9.4-13.6 14.2-8.8 4.9-19 4.9-11.1 0-19.8-5.4-8.7-5.3-13.2-14.5-4.5-9.3-4.5-19.6zm10.7 0.1q0 14.2 7.6 22.3 7.6 8.2 19.1 8.2 11.7 0 19.3-8.2 7.6-8.3 7.6-23.4-0.1-9.6-3.3-16.7-3.2-7.1-9.4-11.1-6.3-3.9-14-3.9-11 0-19 7.6-7.9 7.5-7.9 25.2z"/>
		<path id="Layer" class="s1" d="m308.8 206.5h10.3v45.3q0 11.8-2.6 18.7-2.7 7-9.7 11.3-7 4.4-18.3 4.4-11 0-18-3.8-7-3.8-10-11-3-7.2-3-19.7v-45.2h10.4v45.2q0 10.2 1.9 15 1.9 4.9 6.5 7.5 4.6 2.6 11.3 2.6 11.4 0 16.3-5.2 4.9-5.2 4.9-19.9z"/>
		<path id="Layer" fill-rule="evenodd" class="s1" d="m333.6 206.5h29.6q7.8 0 11.9 0.7 5.8 1 9.7 3.7 3.9 2.7 6.3 7.5 2.4 4.9 2.3 10.7 0 10-6.3 16.9-6.4 7-23 7h-20.1v31.8h-10.4zm10.4 37.3h20.3q10 0 14.2-3.8 4.3-3.7 4.2-10.5 0-4.9-2.4-8.4-2.5-3.5-6.6-4.6-2.6-0.7-9.7-0.7h-20z"/>
		<g id="Layer">
			<path id="Layer" class="s1" d="m849.9 127.1l5.5-0.5q0.4 3.4 1.9 5.5 1.4 2.1 4.4 3.5 3.1 1.3 6.9 1.3 3.3 0 5.9-1 2.6-1 3.8-2.8 1.3-1.7 1.3-3.8 0-2.1-1.2-3.6-1.2-1.6-4-2.6-1.8-0.7-7.9-2.2-6.2-1.5-8.6-2.8-3.2-1.7-4.8-4.1-1.5-2.5-1.5-5.6 0-3.3 1.9-6.3 1.9-2.9 5.6-4.4 3.6-1.5 8.1-1.5 5 0 8.8 1.6 3.7 1.6 5.8 4.7 2 3.1 2.1 7l-5.6 0.4q-0.5-4.2-3.1-6.4-2.6-2.1-7.7-2.1-5.4 0-7.8 1.9-2.5 2-2.4 4.8 0 2.4 1.7 3.9 1.7 1.5 8.9 3.2 7.1 1.6 9.8 2.8 3.9 1.8 5.7 4.5 1.9 2.8 1.9 6.4 0 3.5-2.1 6.7-2 3.1-5.8 4.8-3.8 1.8-8.6 1.8-6 0-10.1-1.8-4.1-1.7-6.4-5.3-2.3-3.5-2.4-8z"/>
			<path id="Layer" class="s1" d="m892.3 141.4v-44.5h5.8v18.3h23.1v-18.3h5.9v44.5h-5.9v-21h-23.1v21z"/>
			<path id="Layer" fill-rule="evenodd" class="s1" d="m930.8 141.4l17.1-44.5h6.3l18.2 44.5h-6.7l-5.2-13.5h-18.6l-4.8 13.5zm12.8-18.3h15.1l-4.7-12.3q-2.1-5.6-3.1-9.2-0.9 4.3-2.4 8.5z"/>
			<path id="Layer" fill-rule="evenodd" class="s1" d="m975.9 141.4v-44.5h16.7q4.5 0 6.8 0.5 3.3 0.5 5.5 2 2.2 1.6 3.5 4.3 1.4 2.8 1.4 6.1 0 5.7-3.6 9.6-3.6 3.9-13 3.9h-11.4v18.1zm5.8-23.3h11.5q5.7 0 8.1-2.1 2.4-2.2 2.4-6 0-2.8-1.4-4.8-1.4-2-3.7-2.6-1.5-0.4-5.5-0.4h-11.4c0 0 0 15.9 0 15.9z"/>
			<path id="Layer" class="s1" d="m1016.2 141.4v-44.5h32.1v5.3h-26.2v13.6h24.5v5.2h-24.5v15.1h27.2v5.3z"/>
			<path id="Layer" class="s1" d="m863.2 213v-39.3h-14.6v-5.2h35.2v5.2h-14.7v39.3z"/>
			<path id="Layer" class="s1" d="m888.8 213v-44.5h5.8v18.3h23.2v-18.3h5.8v44.5h-5.8v-21h-23.2v21z"/>
			<path id="Layer" class="s1" d="m932.3 213v-44.5h32.2v5.3h-26.3v13.6h24.6v5.2h-24.6v15.1h27.3v5.3h-33.2z"/>
			<path id="Layer" class="s1" d="m859.6 284.5l-11.8-44.4h6.1l6.7 29.1q1.1 4.6 1.9 9.1 1.7-7.1 2-8.2l8.5-30h7.1l6.4 22.5q2.4 8.3 3.4 15.7 0.9-4.2 2.2-9.7l7-28.5h5.9l-12.2 44.4h-5.6l-9.4-33.8q-1.2-4.3-1.4-5.3-0.7 3.1-1.3 5.3l-9.4 33.8z"/>
			<path id="Layer" fill-rule="evenodd" class="s1" d="m907.5 262.9q0-11.1 5.9-17.4 6-6.2 15.4-6.2 6.1 0 11.1 2.9 4.9 3 7.5 8.2 2.6 5.3 2.6 12 0 6.7-2.7 12.1-2.8 5.3-7.8 8-5 2.8-10.8 2.8-6.3 0-11.2-3-4.9-3.1-7.5-8.3-2.5-5.3-2.5-11.1zm6 0.1q0 8 4.4 12.6 4.3 4.7 10.8 4.7 6.6-0.1 10.9-4.7 4.3-4.7 4.3-13.3 0-5.4-1.8-9.4-1.8-4.1-5.4-6.3-3.5-2.3-7.9-2.3-6.3 0-10.8 4.3-4.5 4.3-4.5 14.4z"/>
			<path id="Layer" class="s1" d="m999.7 284.5v-44.4h5.9v39.2h21.9v5.2z"/>
			<path id="Layer" fill-rule="evenodd" class="s1" d="m1033.2 284.5v-44.4h15.4q5.2 0 7.9 0.6 3.8 0.9 6.5 3.2 3.5 3 5.2 7.6 1.8 4.6 1.8 10.6 0 5-1.2 8.9-1.2 4-3 6.5-1.9 2.6-4.1 4-2.2 1.5-5.3 2.3-3.1 0.7-7.1 0.7zm5.9-5.2h9.5q4.4 0 6.9-0.8 2.5-0.9 4-2.3 2-2.1 3.2-5.7 1.2-3.5 1.2-8.5 0-7-2.3-10.8-2.3-3.7-5.6-5-2.3-0.9-7.6-0.9h-9.3z"/>
		</g>
		<path id="Layer" fill-rule="evenodd" class="s2" d="m416.9 205.8q3.8 0 7.4 1.9 3.5 2 5.5 5.5 2 3.6 2 7.5 0 3.9-1.9 7.4-2 3.6-5.5 5.5-3.6 2-7.5 2-3.8 0-7.4-2-3.5-1.9-5.5-5.5-2-3.5-2-7.4 0-3.9 2-7.5 2-3.5 5.6-5.5 3.6-1.9 7.3-1.9zm0 2.5q-3.1 0-6.1 1.6-2.9 1.6-4.6 4.6-1.7 3-1.7 6.2 0 3.2 1.6 6.2 1.7 3 4.7 4.6 2.9 1.6 6.1 1.6 3.3 0 6.2-1.6 3-1.6 4.6-4.6 1.7-3 1.7-6.2 0-3.2-1.7-6.2-1.7-3-4.7-4.6-2.9-1.6-6.1-1.6zm-6.5 20.7v-16.1h5.5q2.8 0 4.1 0.5 1.3 0.4 2 1.5 0.8 1.1 0.8 2.4 0 1.7-1.3 3-1.2 1.3-3.3 1.5 0.8 0.3 1.4 0.8 0.9 1 2.3 3.2l2 3.2h-3.2l-1.4-2.6q-1.7-3-2.7-3.7-0.7-0.6-2.1-0.6h-1.5v6.9zm2.6-9.1h3.1q2.3 0 3.1-0.6 0.8-0.7 0.8-1.8 0-0.7-0.4-1.3-0.4-0.5-1.1-0.8-0.7-0.3-2.6-0.3h-2.9z"/>
		<path id="Layer" class="s1" d="m804.7 96.8h3.2v187.8h-3.2z"/>
		<path id="Layer" fill-rule="evenodd" class="s1" d="m956.4 284.5v-44.4h19.7q6 0 9.1 1.2 3.1 1.2 4.9 4.2 1.9 3 1.9 6.7 0 4.7-3.1 8c-2 2.1-5.5 3.4-9.5 4.1 0.1 0 16.2 20.2 16.2 20.2h-7.4l-15.8-19.7c0 0-1.8 0-3.3 0h-6.8v19.7zm5.9-24.8h12.6q4.1 0 6.4-0.8 2.2-0.9 3.4-2.7 1.2-1.8 1.2-4 0-3.1-2.3-5.2-2.3-2-7.2-2h-14.1c0 0 0 14.7 0 14.7z"/>
	</g>
</svg>