<svg version="1.2" xmlns="http://www.w3.org/2000/svg" viewBox="0 0 1000 1000" width="1000" height="1000">
	<title>RFEM</title>
	<style>
		.s0 { opacity: 1;fill: #71767d } 
	</style>
	<path id="Path 0" fill-rule="evenodd" class="s0" d="m6 683l1-1h136l18 5 17 11 18 20 8 17 4 15v33l-8 24-23 26-15 8h-7l-5 5 73 92 5 10h3v6l-6 1h-79l-10-10-55-89-2 97-6 2h-66v-1h-1zm73 120h20l17-4 12-11 5-16-2-15-12-14-9-4-30-1zm-73 151l1 1h-1zm261 1l-6-3v-267l4-3h154l4 3-2 57-85 2 1 41h73l5 5v53l-6 6-73 1 1 101-7 4zm199 0l-6-3v-267l4-3h152l3 3-2 58-82 1 2 41h73l4 3v58l-6 3h-73v44l83 1 1 58-5 3zm188 0l-3-1v-16l12-58v-13l4-11 16-107 3-5 1-19 3-4 4-36 4-3h69l7 11 1 9 7 12 24 70 3 1 1 9 13 29 51-130 7-11h71l6 22 20 148 3 5 1 21 3 5 1 21 8 39v11h-1v1h-67l-5-2-4-21-16-130-60 147-7 6h-24l-6-3-1-8-19-42v-6l-4-4-4-16-31-73-10 74-3 4-1 22-3 4-1 23-3 4v16l-2 4-5 1zm339 0l1-1v1zm-993-597v-314h1000v314h-644v-289h-58v289zm378-231l7 4 467 206 12 5h43l-530-233zm-342 215h26l205-191 12-12-1-24zm342-188l4 4 211 185h29l-244-210zm-378 415v-139h298v115h58v-115h644v139z"/>
</svg>