<svg version="1.2" xmlns="http://www.w3.org/2000/svg" viewBox="0 0 1000 208" width="1000" height="208">
	<title>SOFiSTiK-svg</title>
	<style>
		.s0 { fill: #696969 } 
		.s1 { fill: #00abf5 } 
	</style>
	<filter id="f0">
		<feFlood flood-color="#71767d" flood-opacity="1" />
		<feBlend mode="normal" in2="SourceGraphic"/>
		<feComposite in2="SourceAlpha" operator="in" />
	</filter>
	<g id="Folder 1" filter="url(#f0)">
		<path id="Layer" class="s0" d="m979.6 129.9l-26.5-29.4 43.2-45h-28l-37.6 40.3v-40.3h-21.4v74.4 22.6h21.4v-22.6-23.5l20.1 23.5 19.3 22.6h29.9l-20.4-22.6z"/>
		<path id="Layer" class="s0" d="m633.7 129.9v22.6h20.6v-22.6-43.4h-20.6v43.4z"/>
		<path id="Layer" fill-rule="evenodd" class="s0" d="m520.8 104q0.1 3.3-0.2 6.7-0.4 3.3-1.1 6.6-0.8 3.3-2 6.4-1.2 3.2-2.7 6.2c-8.6 15.7-25.5 25-46.1 25-20.7 0-37.5-9.2-46.2-25q-1.5-3-2.7-6.2-1.2-3.1-2-6.4-0.8-3.3-1.2-6.6-0.3-3.4-0.3-6.7c0-31.1 22.1-51 52.4-51 30.3 0 52.1 19.9 52.1 51zm-34.7 25.9q3.1-2.3 5.5-5.1 2.4-2.9 4-6.3 1.6-3.4 2.4-7.1 0.8-3.7 0.6-7.4c0-18.1-11.9-31.2-30.1-31.2-18.2 0-30.2 13.1-30.2 31.2q-0.1 3.7 0.7 7.4 0.7 3.7 2.4 7.1 1.6 3.4 4 6.3 2.4 2.8 5.4 5.1c2.7 1.7 5.5 3 8.6 3.9 3 1 6.1 1.4 9.3 1.4 3.1 0 6.3-0.4 9.3-1.4 3-0.9 5.9-2.2 8.5-3.9z"/>
		<path id="Layer" class="s0" d="m354.4 82.8c0-7.3 8.3-10 14.4-10q2.1-0.1 4.3 0.4 2.1 0.4 4.1 1.2 2 0.9 3.8 2.1 1.8 1.3 3.3 2.9l14.6-16.1q-3.1-2.5-6.6-4.5-3.5-2-7.3-3.3-3.8-1.3-7.8-1.9-4-0.5-8-0.4c-19.1 0-37 10.8-37 31.5 0 32.3 45.5 22.8 45.5 40.6q0 0.6-0.1 1.3-0.1 0.6-0.3 1.2-0.2 0.6-0.5 1.2-0.3 0.6-0.7 1.1-1.3 1.3-2.8 2.4-1.5 1-3.2 1.7-1.7 0.7-3.6 1-1.8 0.3-3.6 0.2-2.1 0-4-0.3-2-0.4-3.9-1.1-1.9-0.7-3.7-1.7-1.8-1-3.3-2.3-0.6-0.4-1-0.8-0.5-0.5-1-0.9-0.5-0.5-0.9-1-0.4-0.5-0.8-1l-3.5 3.8-11.6 12.7q3.3 3 7.1 5.3 3.8 2.4 8 3.9 4.2 1.6 8.6 2.3 4.4 0.8 8.9 0.6c17.7 0 33.3-8.1 36.7-25q0.2-0.8 0.3-1.7 0.1-0.8 0.2-1.7 0.1-0.9 0.1-1.7 0.1-0.9 0.1-1.8c-0.2-34-44.8-22.6-44.8-40.2z"/>
		<path id="Layer" class="s0" d="m543 129.9v22.6h21.3v-22.6-15.2h40.5v-19.8h-40.5v-19.7h43.7v-19.7h-65v74.4z"/>
		<path id="Layer" class="s0" d="m863 129.9v22.6h20.5v-22.6-43.4h-20.5v43.4z"/>
		<path id="Layer" class="s0" d="m863 55.5h20.5v20.5h-20.5z"/>
		<path id="Layer" class="s0" d="m702.5 82.8c0-7.3 8.3-10 14.3-10q2.2-0.1 4.3 0.4 2.2 0.4 4.2 1.2 2 0.9 3.8 2.1 1.7 1.3 3.2 2.9l14.7-16.1q-3.1-2.5-6.6-4.5-3.5-2-7.3-3.3-3.9-1.3-7.8-1.9-4-0.5-8-0.4c-19.1 0-37 10.8-37 31.5 0 32.3 45.5 22.8 45.5 40.6q-0.1 0.6-0.2 1.3-0.1 0.6-0.3 1.2-0.1 0.6-0.4 1.2-0.3 0.6-0.7 1.1-1.2 1.3-2.8 2.4-1.5 1.1-3.2 1.7-1.7 0.7-3.6 1-1.8 0.3-3.6 0.2-2.1 0-4.1-0.3-2-0.4-3.9-1.1-1.9-0.7-3.6-1.7-1.8-1-3.4-2.3-0.5-0.4-1-0.8-0.4-0.5-0.9-0.9-0.5-0.5-0.9-1-0.4-0.5-0.8-1l-3.5 3.8-11.7 12.9q3.3 3 7.1 5.3 3.8 2.4 8 4 4.2 1.5 8.6 2.2 4.4 0.8 8.8 0.6c17.8 0 33.4-8.1 36.8-25q0.2-0.8 0.3-1.7 0.1-0.8 0.2-1.7 0.1-0.9 0.1-1.7 0.1-0.9 0.1-1.7c-0.1-34.3-44.7-22.9-44.7-40.5z"/>
		<path id="Layer" class="s0" d="m765 74.4h27.7v55.5 22.6h21.4v-22.6-55.5h27.7v-18.9h-76.8v18.9z"/>
		<path id="Layer" class="s0" d="m633.8 55.5h20.5v20.5h-20.5z"/>
		<path id="Layer" fill-rule="evenodd" class="s1" d="m45.8 89.2q4.2-1.8 8.2-3.7 4.1-1.9 8.1-3.9 4-2 8-4.1 3.9-2.1 7.8-4.4 3.7 0.3 7.3 0.6 3.6 0.4 7.2 0.9 3.6 0.5 7.2 1.1 3.6 0.6 7.2 1.3-4.4 2.5-8.8 4.8-4.4 2.3-9 4.4-4.5 2.2-9.1 4.2-4.5 2-9.2 3.8-2.9-0.9-5.9-1.6-3-0.8-6-1.4-3-0.6-6-1.1-3-0.5-6-0.8h-1zm41.1-21.5c10.5-6.4 20.6-13.5 30.7-21.1v0.3q3.7 0.3 7.4 0.6 3.7 0.4 7.4 0.9 3.7 0.5 7.4 1.1 3.7 0.6 7.3 1.3-4 3-8 5.8-4.1 2.9-8.2 5.6-4.2 2.8-8.4 5.4-4.2 2.7-8.5 5.2-2.8-0.8-5.6-1.5-2.9-0.7-5.7-1.2-2.9-0.6-5.8-1.1-2.9-0.4-5.8-0.8l-4.1-0.5zm37.5-26.4c10.6-8.3 21.3-17.4 32.3-27.1q3.8 0.3 7.6 0.6 3.8 0.4 7.5 0.9 3.8 0.6 7.5 1.2 3.8 0.7 7.5 1.5c-10.9 9.6-22.1 19-33.7 27.8q-2.6-0.7-5.3-1.3-2.6-0.6-5.3-1.2-2.6-0.5-5.3-0.9-2.7-0.4-5.4-0.7c-2.8-0.4-5.3-0.7-7.4-0.8zm69.4-20.8q3.4 1.1 6.7 2.4 3.3 1.4 6.5 2.9 3.3 1.5 6.4 3.3 3.1 1.7 6.1 3.6c-11 9.7-22.3 19.1-33.9 28q-3-1.9-6.1-3.6-3.1-1.7-6.3-3.2-3.2-1.6-6.5-2.9-3.2-1.3-6.6-2.5 3.6-2.7 7.1-5.6c13.9-11.2 24.4-20.5 26.6-22.4zm-13.7 44.1q-4.1 3.1-8.3 6-4.3 3-8.6 5.9-4.3 2.8-8.6 5.5-4.4 2.8-8.8 5.4-2.8-1.8-5.8-3.5-2.9-1.7-5.9-3.2-3-1.5-6.1-2.8-3.1-1.3-6.3-2.5c10.7-6.5 21.4-14 32.6-22.6h0.4q3.3 1 6.6 2.3 3.2 1.3 6.4 2.8 3.2 1.4 6.3 3.1 3.1 1.6 6.1 3.5zm-40.4 26.3q-4.6 2.5-9.2 5-4.6 2.4-9.4 4.6-4.7 2.2-9.5 4.3-4.8 2.1-9.7 4-2.6-1.8-5.4-3.4-2.7-1.6-5.6-3-2.8-1.5-5.7-2.8-2.9-1.3-5.9-2.4 4.6-1.9 9.2-4 4.6-2.1 9.1-4.3 4.4-2.2 8.9-4.6 4.4-2.4 8.7-5 3.2 1.1 6.3 2.4 3.2 1.3 6.3 2.7 3 1.4 6 3.1 3 1.6 5.9 3.3zm-45.1 20.7c-18.3 6.2-43.2 12-43.2 12q-2.4-1.6-4.9-3.1-2.5-1.5-5.1-2.9-2.6-1.3-5.2-2.5-2.7-1.3-5.3-2.4 5-1.2 10.1-2.6 5-1.4 10-2.9 5-1.5 9.9-3.2 4.9-1.7 9.8-3.5 3.1 1.1 6.2 2.3 3 1.2 6 2.6 2.9 1.4 5.8 2.9 2.9 1.6 5.7 3.3zm130-75.4q3.7 2.7 7.3 5.6 3.5 3 6.9 6.2 3.3 3.2 6.4 6.6 3.1 3.4 6 7c-10.9 9.7-22.1 19.1-33.7 28q-2.9-3.6-6-7-3.2-3.4-6.6-6.6-3.3-3.2-6.9-6.1-3.6-3-7.3-5.7c3-2.3 6.1-4.8 9.2-7.3 11.5-9.2 20.6-17.1 24.7-20.8zm-12.2 57.2q-4.1 3.1-8.4 6.2-4.3 3-8.6 6-4.4 2.9-8.8 5.7-4.4 2.9-8.9 5.6-2.8-3.6-5.9-7-3.1-3.4-6.3-6.6-3.3-3.2-6.8-6.1-3.5-3-7.1-5.7 4.3-2.7 8.7-5.5 4.3-2.8 8.5-5.7 4.3-2.9 8.4-5.9 4.2-3.1 8.3-6.2 3.8 2.7 7.3 5.6 3.6 2.9 7 6.1 3.4 3.1 6.6 6.5 3.1 3.4 6 7zm-111.5 22.3q3.8 2.6 7.3 5.6 3.6 2.9 7 6.1 3.4 3.1 6.5 6.5 3.2 3.4 6.1 7c-15.4 5.6-37.5 11-44.2 12.5q-2.8-3.5-5.7-6.8-3-3.4-6.2-6.5-3.2-3.2-6.5-6.1-3.4-3-6.9-5.7 5.4-1.3 10.8-2.7 5.4-1.4 10.7-3 5.4-1.5 10.7-3.2 5.3-1.8 10.6-3.6zm7.1-2.8q0 0.1 0 0.1 0 0-0.1 0zm9.6-3.9q4.8-2.1 9.6-4.3 4.7-2.3 9.4-4.7 4.6-2.5 9.1-5.1 3.8 2.7 7.3 5.6 3.5 2.9 6.9 6 3.3 3.2 6.4 6.5 3.1 3.4 6 6.9-4.6 2.7-9.3 5.2-4.7 2.5-9.5 4.8-4.8 2.3-9.7 4.5-4.9 2.1-9.8 4.1-2.8-3.6-5.9-7-3-3.4-6.3-6.6-3.3-3.2-6.7-6.2-3.4-3-7.1-5.7 4.9-1.9 9.6-4zm137.4-42.6q3 4.1 5.9 8.4 3 4.2 5.7 8.6 2.8 4.3 5.4 8.8 2.6 4.4 5 9c-11.8 10.4-22.9 19.8-33.5 28.2q-2.4-4.6-5-9.1-2.6-4.5-5.4-8.8-2.8-4.4-5.8-8.7-3-4.2-6.1-8.4c2.9-2.2 5.8-4.5 8.7-6.9 11.8-9.4 21.1-17.5 25-20.8zm-16.4 66.7q0 0 0 0 0 0 0 0zm-8.4 6.3q-4.3 3.1-8.7 6.1-4.3 3-8.8 5.8-4.4 2.9-9 5.6-2.4-4.6-5-9.1-2.6-4.4-5.3-8.8-2.8-4.4-5.7-8.7-2.9-4.2-6-8.4 4.5-2.7 8.9-5.6 4.4-2.9 8.8-5.8 4.3-3 8.5-6.1 4.3-3.1 8.4-6.3 3.2 4.1 6.1 8.4 3 4.3 5.8 8.6 2.8 4.4 5.4 8.9 2.6 4.5 5 9.1-4.1 3.2-8.4 6.3zm-98.4 6.6q3 4.1 5.9 8.3 3 4.2 5.7 8.6 2.7 4.3 5.3 8.7 2.6 4.4 5 8.9-5.4 2-10.9 3.7-5.5 1.8-11 3.4-5.6 1.7-11.1 3.1-5.6 1.5-11.2 2.8-2.4-4.5-5-8.9-2.6-4.4-5.3-8.7-2.7-4.3-5.6-8.5-2.8-4.2-5.8-8.3 5.6-1.3 11.1-2.8 5.5-1.5 11.1-3.1 5.5-1.7 10.9-3.4 5.5-1.8 10.9-3.8zm6-2.3q0.1 0 0.1 0 0 0-0.1 0zm9.9-4q4.9-2.1 9.7-4.5 4.9-2.3 9.6-4.8 4.7-2.5 9.3-5.2 3.1 4.2 6.1 8.4 2.9 4.3 5.7 8.6 2.7 4.4 5.3 8.9 2.6 4.5 5 9-4.7 2.7-9.5 5.1-4.7 2.5-9.6 4.8-4.9 2.3-9.8 4.4-5 2.1-10 4-2.4-4.5-4.9-9-2.6-4.4-5.3-8.7-2.7-4.4-5.6-8.6-2.8-4.2-5.8-8.3 4.9-2 9.8-4.1zm-147.7-34.9c11.7-3.1 22.8-6.7 33.3-10.6q3.5 0.2 6.9 0.6 3.5 0.3 7 0.8 3.4 0.4 6.8 1 3.5 0.5 6.9 1.2c-15.4 5.2-35 10-40.6 11.3q-2.5-0.7-5-1.3-2.5-0.6-5-1.1-2.6-0.6-5.1-1-2.6-0.4-5.1-0.7z"/>
	</g>
</svg>