<svg version="1.2" xmlns="http://www.w3.org/2000/svg" viewBox="0 0 351 351" width="1000" height="1000">
	<title>Wayss_und_Freytag_Ingenieurbau_AG-svg</title>
	<style>
		.s0 { fill: #71767d } 
	</style>
	<path id="Layer" fill-rule="evenodd" class="s0" d="m162 351c-54.3 0-108.2 0-162 0q0-175.5 0-351 175.5 0 351 0 0 175.5 0 351c-62.8 0-125.7 0-189 0zm-24.9-154.3c6-27.1 12.1-54.1 18.1-81.4-6.6 0-12.8 0-19.1 0-4.1 21.7-8.2 43.1-12.2 64.6q-0.6 0-1.2 0-7.5-32.3-15-64.6c-5.6 0-10.9 0-16.3 0-5 21.7-10 43.1-15 64.6q-0.6-0.1-1.2-0.2-6.2-32.3-12.4-64.5c-6.5 0-12.6 0-18.6 0-0.1 0.4-0.2 0.6-0.1 0.7 6.6 30.2 13.2 60.4 20 90.6 0.3 1.1 2.1 2.5 3.3 2.5 5.4 0.3 10.9 0.2 16.6 0.2 5.1-20.8 10.1-41.2 15.1-61.7q0.4 0.1 0.9 0.1c5 20.5 10 41 14.9 61.3 6.8 0 13.1 0 19.5 0 0.9-3.9 1.7-7.6 2.7-12.2zm66.8-79.2c-0.8-0.4-1.5-0.8-2.2-1.2-10.7-4.9-24-2.6-31.4 5.5-7.2 7.9-7.8 20.2-1.5 30.7 1.4 2.3 2.9 4.6 4.4 7-2.3 1.9-4.4 3.5-6.4 5.2-8.9 7.2-12.9 16.1-9.3 27.4 3.5 11 11.9 16.3 22.9 18 10.9 1.7 21.1-0.5 30.5-6.2 5.9 5.6 13.2 6.9 25.1 4.6-4.4-5.2-8.6-10.2-12.9-15.2 6.8-12.8 9-21.2 7.7-29.8-4.9 0-9.8 0-14.3 0-1.4 5.6-2.7 10.9-4.3 17.1-6.2-7.2-11.4-13.4-16.7-19.6 4.1-3.3 8.1-6.1 11.5-9.5 10.4-10.4 9.3-24.6-3.1-34zm62.3 60.1c0-2.1 0-4.2 0-6.9 12.7 0 25 0 37.3 0 0-5.4 0-10.3 0-15.7-12.5 0-24.8 0-36.9 0 0-8.4 0-16.3 0-24.7 14.1 0 27.8 0 41.5 0 0-5.4 0-10.3 0-15.1-20.5 0-40.6 0-60.8 0q0 47.1 0 93.6c6.5 0 12.5 0 18.9 0 0-10.3 0-20.2 0-31.2z"/>
	<path id="Layer" class="s0" d="m188.9 195.8c-7.7-0.5-11.8-3.2-13.5-8.7-1.9-6.1 0.4-12 6.9-16.7 6.1 7 12.2 14 19.2 22.1-4.7 1.3-8.4 2.3-12.6 3.3z"/>
	<path id="Layer" class="s0" d="m192.3 146.4c-2.3 1.5-4.4 2.9-7.4 4.8-1.8-4.5-3.9-8.3-4.8-12.4-0.9-4.2 1-8.1 5.4-9.5 3.9-1.3 8.1-1 10.7 3 2.6 4 1.8 7.9-1 11.5-0.7 0.9-1.7 1.6-2.9 2.6z"/>
</svg>